<svg xmlns="http://www.w3.org/2000/svg" version="1.1" xmlns:xlink="http://www.w3.org/1999/xlink" xmlns:svgjs="http://svgjs.dev/svgjs" width="2000" height="1247" viewBox="0 0 2000 1247"><g transform="matrix(1,0,0,1,-1.2121032051912835,0.504858299595071)"><svg viewBox="0 0 396 247" data-background-color="#fafafa" preserveAspectRatio="xMidYMid meet" height="1247" width="2000" xmlns="http://www.w3.org/2000/svg" xmlns:xlink="http://www.w3.org/1999/xlink"><defs></defs><g id="tight-bounds" transform="matrix(1,0,0,1,0.23999651421206636,-0.09999999999999432)"><svg viewBox="0 0 395.52 247.2" height="247.2" width="395.52"><g><svg></svg></g><g><svg viewBox="0 0 395.52 247.2" height="247.2" width="395.52"><g><path d="M39.307 70.318v20.003l-38.307 0v-47.166h105.635l-3.714 27.163zM39.307 204.045h-38.307l0-47.166h38.307zM208.091 169.22h-47.129l-8.358 34.825h-39.933l14.429-47.166 115.781 0 14.429 47.166h-40.861zM161.89 43.155h46.201l14.429 47.166-33.279 0-4.83-19.771-4.831 19.771-32.119 0zM394.52 43.155l-5.513 47.166-30.587 0 2.9-47.166zM375.715 204.045h-39.468l-4.85-47.166 20.387 0 1.643 14.663 0.901-14.663 26.9 0zM324.406 88.891l-0.161 1.43-19.536 0 3.446-28.593h32.967l3.204 28.593-19.773 0zM311.405 204.045h-40.165l-5.104-47.166 28.149 0 0.636 14.663 1.767-14.663h20.042zM253.828 43.155h35.521l2.047 47.166-32.464 0z" fill="#000000" data-fill-palette-color="tertiary"></path></g><g transform="matrix(1,0,0,1,0,95.04568760060758)"><svg viewBox="0 0 395.52 57.10862479878482" height="57.10862479878482" width="395.52"><g><svg viewBox="0 0 395.52 57.10862479878482" height="57.10862479878482" width="395.52"><g><svg viewBox="0 0 395.52 57.10862479878482" height="57.10862479878482" width="395.52"><g><svg viewBox="0 0 395.52 57.10862479878482" height="57.10862479878482" width="395.52"><g><svg viewBox="0 0 395.52 57.10862479878482" height="57.10862479878482" width="395.52"><g><svg viewBox="0 0 395.52 32.37589873417722" height="32.37589873417722" width="395.52"><g transform="matrix(1,0,0,1,0,0)"><svg width="395.52" viewBox="5.400000095367432 -37.95000076293945 473.9599914550781 38.79999923706055" height="32.37589873417722" data-palette-color="#130912"><path d="M13.65-28.8L13.65-19.65 25.75-19.65 25.75-13.75 13.65-13.75 13.65 0 5.4 0 5.4-34.65 28.15-34.65 27.35-28.8 13.65-28.8ZM53.75-27.35Q56.15-27.35 58.15-26.55L58.15-26.55 56.7-15.45 51.7-15.45 51.7-20.35Q49.5-19.95 47.8-17.95 46.1-15.95 45.15-12.9L45.15-12.9 45.15-5.3 50.4-5.3 50.4 0 33.75 0 33.75-5.3 37.25-5.3 37.25-21.3 33.75-21.3 33.75-26.55 43.3-26.55 44.7-20.6Q46.15-24 48.35-25.68 50.55-27.35 53.75-27.35L53.75-27.35ZM70.34-10.95Q71.09-4.9 76.75-4.9L76.75-4.9Q80.15-4.9 83.55-7.1L83.55-7.1 86.7-2.8Q84.75-1.1 82.05-0.13 79.34 0.85 76.09 0.85L76.09 0.85Q71.65 0.85 68.55-0.93 65.45-2.7 63.87-5.88 62.3-9.05 62.3-13.25L62.3-13.25Q62.3-17.25 63.82-20.48 65.34-23.7 68.27-25.58 71.2-27.45 75.25-27.45L75.25-27.45Q79.05-27.45 81.84-25.83 84.65-24.2 86.17-21.13 87.7-18.05 87.7-13.8L87.7-13.8Q87.7-12.15 87.55-10.95L87.55-10.95 70.34-10.95ZM75.25-22.15Q73.09-22.15 71.8-20.58 70.5-19 70.25-15.75L70.25-15.75 80-15.75Q79.9-22.15 75.25-22.15L75.25-22.15ZM104.14-4.8Q106.19-4.8 107.37-5.43 108.54-6.05 108.54-7.3L108.54-7.3Q108.54-8.2 108.07-8.75 107.59-9.3 106.29-9.83 104.99-10.35 102.24-11.1L102.24-11.1Q98.24-12.15 96.14-14.03 94.04-15.9 94.04-19.2L94.04-19.2Q94.04-22.85 97.07-25.15 100.09-27.45 105.54-27.45L105.54-27.45Q111.84-27.45 116.29-24.2L116.29-24.2 113.14-19.55Q109.49-21.8 105.79-21.8L105.79-21.8Q103.84-21.8 102.92-21.3 101.99-20.8 101.99-19.75L101.99-19.75Q101.99-19.05 102.47-18.57 102.94-18.1 104.27-17.6 105.59-17.1 108.24-16.35L108.24-16.35Q111.09-15.55 112.92-14.6 114.74-13.65 115.74-12.05 116.74-10.45 116.74-7.95L116.74-7.95Q116.74-5.15 115.04-3.15 113.34-1.15 110.49-0.15 107.64 0.85 104.19 0.85L104.19 0.85Q100.49 0.85 97.49-0.2 94.49-1.25 92.39-3.15L92.39-3.15 96.34-7.6Q99.94-4.8 104.14-4.8L104.14-4.8ZM131.39-37.9L131.39-23.9Q134.74-27.45 139.19-27.45L139.19-27.45Q142.69-27.45 144.59-25.38 146.49-23.3 146.49-19.5L146.49-19.5 146.49 0 138.59 0 138.59-17.3Q138.59-19.7 138.04-20.65 137.49-21.6 136.04-21.6L136.04-21.6Q134.84-21.6 133.72-20.78 132.59-19.95 131.39-18.35L131.39-18.35 131.39 0 123.49 0 123.49-37.1 131.39-37.9ZM160.34-10.95Q161.09-4.9 166.74-4.9L166.74-4.9Q170.14-4.9 173.54-7.1L173.54-7.1 176.69-2.8Q174.74-1.1 172.04-0.13 169.34 0.85 166.09 0.85L166.09 0.85Q161.64 0.85 158.54-0.93 155.44-2.7 153.86-5.88 152.29-9.05 152.29-13.25L152.29-13.25Q152.29-17.25 153.81-20.48 155.34-23.7 158.26-25.58 161.19-27.45 165.24-27.45L165.24-27.45Q169.04-27.45 171.84-25.83 174.64-24.2 176.16-21.13 177.69-18.05 177.69-13.8L177.69-13.8Q177.69-12.15 177.54-10.95L177.54-10.95 160.34-10.95ZM165.24-22.15Q163.09-22.15 161.79-20.58 160.49-19 160.24-15.75L160.24-15.75 169.99-15.75Q169.89-22.15 165.24-22.15L165.24-22.15ZM203.74-27.35Q206.14-27.35 208.14-26.55L208.14-26.55 206.69-15.45 201.69-15.45 201.69-20.35Q199.49-19.95 197.79-17.95 196.09-15.95 195.14-12.9L195.14-12.9 195.14-5.3 200.39-5.3 200.39 0 183.74 0 183.74-5.3 187.24-5.3 187.24-21.3 183.74-21.3 183.74-26.55 193.29-26.55 194.69-20.6Q196.14-24 198.34-25.68 200.54-27.35 203.74-27.35L203.74-27.35ZM224.13-4.8Q226.18-4.8 227.36-5.43 228.53-6.05 228.53-7.3L228.53-7.3Q228.53-8.2 228.06-8.75 227.58-9.3 226.28-9.83 224.98-10.35 222.23-11.1L222.23-11.1Q218.23-12.15 216.13-14.03 214.03-15.9 214.03-19.2L214.03-19.2Q214.03-22.85 217.06-25.15 220.08-27.45 225.53-27.45L225.53-27.45Q231.83-27.45 236.28-24.2L236.28-24.2 233.13-19.55Q229.48-21.8 225.78-21.8L225.78-21.8Q223.83-21.8 222.91-21.3 221.98-20.8 221.98-19.75L221.98-19.75Q221.98-19.05 222.46-18.57 222.93-18.1 224.26-17.6 225.58-17.1 228.23-16.35L228.23-16.35Q231.08-15.55 232.91-14.6 234.73-13.65 235.73-12.05 236.73-10.45 236.73-7.95L236.73-7.95Q236.73-5.15 235.03-3.15 233.33-1.15 230.48-0.15 227.63 0.85 224.18 0.85L224.18 0.85Q220.48 0.85 217.48-0.2 214.48-1.25 212.38-3.15L212.38-3.15 216.33-7.6Q219.93-4.8 224.13-4.8L224.13-4.8ZM289.98-7.5L279.83-7.5 278.03 0 269.43 0 280.03-34.65 289.98-34.65 300.58 0 291.78 0 289.98-7.5ZM281.13-13.4L288.63-13.4 284.88-28.75 281.13-13.4ZM327.38-1.55Q323.63 0.85 318.68 0.85L318.68 0.85Q313.58 0.85 311-1.75 308.43-4.35 308.43-9.05L308.43-9.05 308.43-21.1 302.88-21.1 302.88-26.55 308.43-26.55 308.43-32.3 316.33-33.25 316.33-26.55 324.88-26.55 324.08-21.1 316.33-21.1 316.33-9.05Q316.33-7.1 317.23-6.25 318.13-5.4 320.13-5.4L320.13-5.4Q322.63-5.4 324.78-6.6L324.78-6.6 327.38-1.55ZM390.12-34.65L386.07 0 377.57 0 375.02-24.8 372.22 0 363.57 0 359.82-34.65 367.47-34.65 368.67-7 371.52-30.65 378.62-30.65 381.27-7 382.97-34.65 390.12-34.65ZM404.97-27.45Q411.02-27.45 414.44-23.63 417.87-19.8 417.87-13.35L417.87-13.35Q417.87-6.65 414.47-2.9 411.07 0.85 404.97 0.85L404.97 0.85Q398.87 0.85 395.47-2.88 392.07-6.6 392.07-13.3L392.07-13.3Q392.07-17.55 393.59-20.73 395.12-23.9 398.04-25.68 400.97-27.45 404.97-27.45L404.97-27.45ZM404.97-21.6Q402.52-21.6 401.37-19.63 400.22-17.65 400.22-13.3L400.22-13.3Q400.22-8.9 401.37-6.93 402.52-4.95 404.97-4.95L404.97-4.95Q407.42-4.95 408.57-6.95 409.72-8.95 409.72-13.35L409.72-13.35Q409.72-17.65 408.57-19.63 407.42-21.6 404.97-21.6L404.97-21.6ZM443.72-27.35Q446.12-27.35 448.12-26.55L448.12-26.55 446.67-15.45 441.67-15.45 441.67-20.35Q439.47-19.95 437.77-17.95 436.07-15.95 435.12-12.9L435.12-12.9 435.12-5.3 440.37-5.3 440.37 0 423.72 0 423.72-5.3 427.22-5.3 427.22-21.3 423.72-21.3 423.72-26.55 433.27-26.55 434.67-20.6Q436.12-24 438.32-25.68 440.52-27.35 443.72-27.35L443.72-27.35ZM461.36-37.95L461.36 0 453.46 0 453.46-37.1 461.36-37.95ZM478.66-26.55L469.91-14.8 479.36 0 470.36 0 461.66-14.55 470.41-26.55 478.66-26.55Z" opacity="1" transform="matrix(1,0,0,1,0,0)" fill="#000000" class="undefined-text-0" data-fill-palette-color="primary" id="text-0"></path></svg></g></svg></g><g transform="matrix(1,0,0,1,0,37.100319381063294)"><svg viewBox="0 0 395.52 20.008305417721523" height="20.008305417721523" width="395.52"><g transform="matrix(1,0,0,1,0,0)"><svg width="395.52" viewBox="2.75 -33.25 860.8900146484375 43.54999923706055" height="20.008305417721523" data-palette-color="#130912"><path d="M14.05 0.5Q8.35 0.5 5.55-3.5 2.75-7.5 2.75-16.35 2.75-25.2 5.45-29.23 8.15-33.25 14.1-33.25L14.1-33.25Q18-33.25 21.95-32L21.95-32 21.95-25.4 19.2-25.4 19.2-29.85Q17-30.65 14.1-30.65L14.1-30.65Q9.6-30.65 7.65-27.3 5.7-23.95 5.7-16.45 5.7-8.95 7.8-5.55 9.9-2.15 14.1-2.15L14.1-2.15Q17.25-2.15 21.6-3.5L21.6-3.5 22.25-0.9Q18.15 0.5 14.05 0.5L14.05 0.5ZM30.09-11.8Q30.09-24.05 39.64-24.05 49.19-24.05 49.19-11.8 49.19 0.45 39.64 0.45 30.09 0.45 30.09-11.8ZM39.64-21.45Q32.94-21.45 32.94-11.8 32.94-2.15 39.64-2.15 46.34-2.15 46.34-11.8 46.34-21.45 39.64-21.45ZM58.07-23.75L60.62-23.75 60.72-21.75Q65.57-24.05 68.77-24.05 71.97-24.05 73.8-21.85 75.62-19.65 75.62-15.85L75.62-15.85 75.62 0 72.97 0 72.97-15.85Q72.97-18.3 71.77-19.9L71.77-19.9Q70.57-21.45 68.17-21.45 65.77-21.45 60.72-19.25L60.72-19.25 60.72 0 58.07 0 58.07-23.75ZM85.21-23.75L87.76-23.75 87.86-21.75Q92.71-24.05 95.91-24.05 99.11-24.05 100.94-21.85 102.76-19.65 102.76-15.85L102.76-15.85 102.76 0 100.11 0 100.11-15.85Q100.11-18.3 98.91-19.9L98.91-19.9Q97.71-21.45 95.31-21.45 92.91-21.45 87.86-19.25L87.86-19.25 87.86 0 85.21 0 85.21-23.75ZM111.9-11.85Q111.9-17.6 114.27-20.83 116.65-24.05 121.2-24.05 125.75-24.05 127.97-21.05 130.2-18.05 130.2-13.05L130.2-13.05 130.05-10.55 114.75-10.55Q115-6.8 116.75-4.48 118.5-2.15 121.57-2.15 124.65-2.15 128.8-3.6L128.8-3.6 129.55-1.1Q125.5 0.45 121.95 0.45L121.95 0.45Q117.05 0.45 114.47-2.83 111.9-6.1 111.9-11.85ZM121.4-21.5L121.4-21.5Q115.1-21.5 114.75-13.05L114.75-13.05 127.35-13.05Q127.35-21.5 121.4-21.5ZM156.33-16L153.63-16 153.63-20.95Q151.18-21.5 149.73-21.5L149.73-21.5Q146.13-21.5 144.36-18.95 142.58-16.4 142.58-11.9 142.58-7.4 144.38-4.78 146.18-2.15 149.73-2.15L149.73-2.15Q151.98-2.15 155.98-3.55L155.98-3.55 156.73-1.05Q152.78 0.45 149.78 0.45L149.78 0.45Q144.88 0.45 142.31-2.83 139.73-6.1 139.73-11.95 139.73-17.8 142.28-20.93 144.83-24.05 149.78-24.05L149.78-24.05Q153.08-24.05 156.33-23L156.33-23 156.33-16ZM170.82-9.1L170.82-20.9 166.62-20.9 166.62-23.4 170.82-23.4 170.82-29.15 173.47-29.65 173.47-23.4 182.97-23.4 182.97-20.9 173.47-20.9 173.47-9.2Q173.47-5.3 174.25-3.7 175.02-2.1 177.42-2.1 179.82-2.1 182.72-3.05L182.72-3.05 183.32-0.55Q180.42 0.5 177.92 0.5 175.42 0.5 174-0.15 172.57-0.8 171.9-2.23 171.22-3.65 171.02-5.15 170.82-6.65 170.82-9.1L170.82-9.1ZM201.91-21.25L196.11-21.25 196.11-23.75 204.56-23.75 204.56-2.5 210.36-2.5 210.36 0 195.71 0 195.71-2.5 201.91-2.5 201.91-21.25ZM203.01-28.55Q202.11-28.55 201.48-29.18 200.86-29.8 200.86-30.78 200.86-31.75 201.48-32.33 202.11-32.9 203.01-32.9 203.91-32.9 204.48-32.35 205.06-31.8 205.06-30.8 205.06-29.8 204.48-29.18 203.91-28.55 203.01-28.55ZM220.89-23.75L223.44-23.75 223.54-21.75Q228.39-24.05 231.59-24.05 234.79-24.05 236.62-21.85 238.44-19.65 238.44-15.85L238.44-15.85 238.44 0 235.79 0 235.79-15.85Q235.79-18.3 234.59-19.9L234.59-19.9Q233.39-21.45 230.99-21.45 228.59-21.45 223.54-19.25L223.54-19.25 223.54 0 220.89 0 220.89-23.75ZM265.63-23.75L265.63-5.75 265.78 1.15Q265.78 5.6 263.11 7.8 260.43 10 256.48 10 252.53 10 247.48 8L247.48 8 248.38 5.5Q253.33 7.4 256.26 7.4 259.18 7.4 261.16 5.88 263.13 4.35 263.13 1.2L263.13 1.2Q263.13 0.8 263.06-0.58 262.98-1.95 262.98-2.6L262.98-2.6Q259.33-0.05 256.18-0.05L256.18-0.05Q251.68-0.05 249.26-3.13 246.83-6.2 246.83-11.88 246.83-17.55 249.53-20.8 252.23-24.05 257.03-24.05L257.03-24.05Q259.68-24.05 262.98-22.3L262.98-22.3 263.08-23.75 265.63-23.75ZM249.68-11.93Q249.68-7.55 251.38-5.1 253.08-2.65 256.33-2.65 259.58-2.65 262.98-5.5L262.98-5.5 262.98-19.5Q259.88-21.45 257.13-21.45L257.13-21.45Q253.58-21.45 251.63-18.88 249.68-16.3 249.68-11.93ZM305 9.6L302.35 9.6 302.35-19.45 301.9-23.8 304.4-24.1 304.85-21.4Q308.5-24.05 311.8-24.05L311.8-24.05Q316.25-24.05 318.7-20.8 321.15-17.55 321.15-11.85 321.15-6.15 318.45-2.85 315.75 0.45 310.95 0.45L310.95 0.45Q308.15 0.45 305-0.9L305-0.9 305 9.6ZM318.3-11.78Q318.3-16.2 316.6-18.82 314.9-21.45 311.73-21.45 308.55-21.45 305-18.6L305-18.6 305-3.6Q306.05-3.1 307.88-2.63 309.7-2.15 310.85-2.15L310.85-2.15Q314.4-2.15 316.35-4.75 318.3-7.35 318.3-11.78ZM328.99-11.85Q328.99-17.6 331.37-20.83 333.74-24.05 338.29-24.05 342.84-24.05 345.07-21.05 347.29-18.05 347.29-13.05L347.29-13.05 347.14-10.55 331.84-10.55Q332.09-6.8 333.84-4.48 335.59-2.15 338.67-2.15 341.74-2.15 345.89-3.6L345.89-3.6 346.64-1.1Q342.59 0.45 339.04 0.45L339.04 0.45Q334.14 0.45 331.57-2.83 328.99-6.1 328.99-11.85ZM338.49-21.5L338.49-21.5Q332.19-21.5 331.84-13.05L331.84-13.05 344.44-13.05Q344.44-21.5 338.49-21.5ZM355.73-11.8Q355.73-24.05 365.28-24.05 374.83-24.05 374.83-11.8 374.83 0.45 365.28 0.45 355.73 0.45 355.73-11.8ZM365.28-21.45Q358.58-21.45 358.58-11.8 358.58-2.15 365.28-2.15 371.98-2.15 371.98-11.8 371.98-21.45 365.28-21.45ZM386.41 9.6L383.76 9.6 383.76-19.45 383.31-23.8 385.81-24.1 386.26-21.4Q389.91-24.05 393.21-24.05L393.21-24.05Q397.66-24.05 400.11-20.8 402.56-17.55 402.56-11.85 402.56-6.15 399.86-2.85 397.16 0.45 392.36 0.45L392.36 0.45Q389.56 0.45 386.41-0.9L386.41-0.9 386.41 9.6ZM399.71-11.78Q399.71-16.2 398.01-18.82 396.31-21.45 393.14-21.45 389.96-21.45 386.41-18.6L386.41-18.6 386.41-3.6Q387.46-3.1 389.29-2.63 391.11-2.15 392.26-2.15L392.26-2.15Q395.81-2.15 397.76-4.75 399.71-7.35 399.71-11.78ZM418.45-30.75L412.5-30.7 412.45-33.15 421.1-33.2 421.1-2.5 427.2-2.5 427.2 0 412.3 0 412.3-2.5 418.45-2.5 418.45-30.75ZM437.54-11.85Q437.54-17.6 439.91-20.83 442.29-24.05 446.84-24.05 451.39-24.05 453.61-21.05 455.84-18.05 455.84-13.05L455.84-13.05 455.69-10.55 440.39-10.55Q440.64-6.8 442.39-4.48 444.14-2.15 447.21-2.15 450.29-2.15 454.44-3.6L454.44-3.6 455.19-1.1Q451.14 0.45 447.59 0.45L447.59 0.45Q442.69 0.45 440.11-2.83 437.54-6.1 437.54-11.85ZM447.04-21.5L447.04-21.5Q440.74-21.5 440.39-13.05L440.39-13.05 452.99-13.05Q452.99-21.5 447.04-21.5ZM499.36-2.15L499.36-2.15Q501.21-2.15 503.39-3.33 505.56-4.5 506.56-5.5L506.56-5.5 506.56-11.45Q503.26-11.7 500.26-11.7 497.26-11.7 495.76-10.43 494.26-9.15 494.26-7L494.26-7Q494.26-2.15 499.36-2.15ZM499.31 0.45L499.31 0.45Q495.66 0.45 493.56-1.43 491.46-3.3 491.46-6.75 491.46-10.2 493.76-12.1L493.76-12.1Q496.06-14.05 499.86-14.05 503.66-14.05 506.56-13.75L506.56-13.75Q506.56-18.2 505.46-19.83 504.36-21.45 501.01-21.45 497.66-21.45 493.11-19.85L493.11-19.85 492.36-22.35Q497.01-24.05 500.76-24.05L500.76-24.05Q505.71-24.05 507.46-21.85 509.21-19.65 509.21-14.15L509.21-14.15 509.21-3.65 509.61 0.15 507.06 0.4 506.56-2.6Q505.41-1.6 503.31-0.58 501.21 0.45 499.31 0.45ZM519.4-23.75L521.95-23.75 522.05-21.75Q526.9-24.05 530.1-24.05 533.3-24.05 535.12-21.85 536.95-19.65 536.95-15.85L536.95-15.85 536.95 0 534.3 0 534.3-15.85Q534.3-18.3 533.1-19.9L533.1-19.9Q531.9-21.45 529.5-21.45 527.1-21.45 522.05-19.25L522.05-19.25 522.05 0 519.4 0 519.4-23.75ZM561.48-33.2L564.13-33.2 564.13-4.15 564.63 0.2 562.08 0.5 561.58-2.15Q557.83 0.45 554.68 0.45L554.68 0.45Q550.23 0.45 547.76-2.85 545.28-6.15 545.28-11.83 545.28-17.5 548.03-20.78 550.78-24.05 555.53-24.05L555.53-24.05Q558.33-24.05 561.48-22.7L561.48-22.7 561.48-33.2ZM548.13-11.9Q548.13-7.5 549.86-4.83 551.58-2.15 554.83-2.15 558.08-2.15 561.48-5L561.48-5 561.48-20Q560.43-20.5 558.61-20.98 556.78-21.45 555.63-21.45L555.63-21.45Q552.08-21.45 550.11-18.88 548.13-16.3 548.13-11.9ZM605.01-9.1L605.01-20.9 600.81-20.9 600.81-23.4 605.01-23.4 605.01-29.15 607.66-29.65 607.66-23.4 617.16-23.4 617.16-20.9 607.66-20.9 607.66-9.2Q607.66-5.3 608.43-3.7 609.21-2.1 611.61-2.1 614.01-2.1 616.91-3.05L616.91-3.05 617.51-0.55Q614.61 0.5 612.11 0.5 609.61 0.5 608.18-0.15 606.76-0.8 606.08-2.23 605.41-3.65 605.21-5.15 605.01-6.65 605.01-9.1L605.01-9.1ZM627.49-11.85Q627.49-17.6 629.87-20.83 632.24-24.05 636.79-24.05 641.34-24.05 643.57-21.05 645.79-18.05 645.79-13.05L645.79-13.05 645.64-10.55 630.34-10.55Q630.59-6.8 632.34-4.48 634.09-2.15 637.17-2.15 640.24-2.15 644.39-3.6L644.39-3.6 645.14-1.1Q641.09 0.45 637.54 0.45L637.54 0.45Q632.64 0.45 630.07-2.83 627.49-6.1 627.49-11.85ZM636.99-21.5L636.99-21.5Q630.69-21.5 630.34-13.05L630.34-13.05 642.94-13.05Q642.94-21.5 636.99-21.5ZM671.93-16L669.23-16 669.23-20.95Q666.78-21.5 665.33-21.5L665.33-21.5Q661.73-21.5 659.96-18.95 658.18-16.4 658.18-11.9 658.18-7.4 659.98-4.78 661.78-2.15 665.33-2.15L665.33-2.15Q667.58-2.15 671.58-3.55L671.58-3.55 672.33-1.05Q668.38 0.45 665.38 0.45L665.38 0.45Q660.48 0.45 657.91-2.83 655.33-6.1 655.33-11.95 655.33-17.8 657.88-20.93 660.43-24.05 665.38-24.05L665.38-24.05Q668.68-24.05 671.93-23L671.93-23 671.93-16ZM684.97-19.4L684.97-19.4 684.97 0 682.32 0 682.32-33.2 684.97-33.2 684.97-21.95Q689.67-24.05 692.72-24.05L692.72-24.05Q699.87-24.05 699.87-15.85L699.87-15.85 699.87 0 697.22 0 697.22-15.85Q697.22-18.4 696.12-19.93 695.02-21.45 692.32-21.45 689.62-21.45 684.97-19.4ZM709.35-23.75L711.9-23.75 712-21.75Q716.85-24.05 720.05-24.05 723.25-24.05 725.08-21.85 726.9-19.65 726.9-15.85L726.9-15.85 726.9 0 724.25 0 724.25-15.85Q724.25-18.3 723.05-19.9L723.05-19.9Q721.85-21.45 719.45-21.45 717.05-21.45 712-19.25L712-19.25 712 0 709.35 0 709.35-23.75ZM735.64-11.8Q735.64-24.05 745.19-24.05 754.74-24.05 754.74-11.8 754.74 0.45 745.19 0.45 735.64 0.45 735.64-11.8ZM745.19-21.45Q738.49-21.45 738.49-11.8 738.49-2.15 745.19-2.15 751.89-2.15 751.89-11.8 751.89-21.45 745.19-21.45ZM771.23-30.75L765.28-30.7 765.23-33.15 773.88-33.2 773.88-2.5 779.98-2.5 779.98 0 765.08 0 765.08-2.5 771.23-2.5 771.23-30.75ZM789.91-11.8Q789.91-24.05 799.46-24.05 809.01-24.05 809.01-11.8 809.01 0.45 799.46 0.45 789.91 0.45 789.91-11.8ZM799.46-21.45Q792.76-21.45 792.76-11.8 792.76-2.15 799.46-2.15 806.16-2.15 806.16-11.8 806.16-21.45 799.46-21.45ZM835.5-23.75L835.5-5.75 835.65 1.15Q835.65 5.6 832.98 7.8 830.3 10 826.35 10 822.4 10 817.35 8L817.35 8 818.25 5.5Q823.2 7.4 826.13 7.4 829.05 7.4 831.03 5.88 833 4.35 833 1.2L833 1.2Q833 0.8 832.93-0.58 832.85-1.95 832.85-2.6L832.85-2.6Q829.2-0.05 826.05-0.05L826.05-0.05Q821.55-0.05 819.13-3.13 816.7-6.2 816.7-11.88 816.7-17.55 819.4-20.8 822.1-24.05 826.9-24.05L826.9-24.05Q829.55-24.05 832.85-22.3L832.85-22.3 832.95-23.75 835.5-23.75ZM819.55-11.93Q819.55-7.55 821.25-5.1 822.95-2.65 826.2-2.65 829.45-2.65 832.85-5.5L832.85-5.5 832.85-19.5Q829.75-21.45 827-21.45L827-21.45Q823.45-21.45 821.5-18.88 819.55-16.3 819.55-11.93ZM852.59 0.35L843.89-23.75 846.89-23.75 853.94-3.55 854.34-3.55 860.64-23.75 863.64-23.75 854.44 4.05Q853.14 8 851.71 9.1 850.29 10.2 845.94 10.3L845.94 10.3 845.94 7.75Q848.74 7.7 849.69 6.95 850.64 6.2 851.44 3.8L851.44 3.8 852.59 0.35Z" opacity="1" transform="matrix(1,0,0,1,0,0)" fill="#000000" class="undefined-text-1" data-fill-palette-color="secondary" id="text-1"></path></svg></g></svg></g></svg></g></svg></g><g></g></svg></g></svg></g></svg></g></svg></g></svg><rect width="395.52" height="247.2" fill="none" stroke="none" visibility="hidden"></rect></g></svg></g></svg>